<?xml version="1.0" encoding="utf-8"?>
<?xml-stylesheet type="text/xsl" href="rss1.xsl"?>
<rss version="2.0" xmlns:atom="http://www.w3.org/2005/Atom" xmlns:content="http://purl.org/rss/1.0/modules/content/" xmlns:dc="http://purl.org/dc/elements/1.1/" xmlns:media="http://search.yahoo.com/mrss/">
<channel>
 <title>Getty</title>
 <link>http://www.gettyimg.com/</link>
 <atom:link href="http://www.gettyimg.com/" rel="self" type="application/rss+xml" />

 
                <item>
                <title><![CDATA[【Cinema Center】MOVIE - Barbie.A.Fairy.Secret.2011.360p.STAN.WEB-DL.AAC2.0.H.264-Samuel]]></title>
                <link><![CDATA[https://sharemania.us/threads/barbie-a-fairy-secret-2011-360p-stan-web-dl-aac2-0-h-264-samuel.234396/]]></link>
                <description><![CDATA[<article>
<blockquote class="messageText SelectQuoteContainer ugc baseHtml">
<div style="text-align: center"><b><span style="font-size: 26px">Barbie: A Fairy Secret</span></b><br>
<img src="https://i.imgur.com/3sN6jYL.jpg" class="bbCodeImage LbImage" alt="[​IMG]" data-url="https://i.imgur.com/3sN6jYL.jpg" style=""><br>
<b><a href="https://i.imgur.com/PJF6v9j.jpg" target="_blank" class="externalLink" rel="nofollow">Banner Background</a></b> | <b><a href="https://i.imgur.com/VTr6mWw.jpg" target="_blank" class="externalLink" rel="nofollow">Box Art</a></b> | <b><a href="https://i.imgur.com/SbKY9Xi.jpg" target="_blank" class="externalLink" rel="nofollow">Cast Ensemble Image</a></b> | <b><a href="https://i.imgur.com/o4FjRFX.jpg" target="_blank" class="externalLink" rel="nofollow">Cast in Character Image</a></b> | <b><a href="https://i.imgur.com/DiAOLqK.jpg" target="_blank" class="externalLink" rel="nofollow">Iconic Header Image</a></b> | <b><a href="https://i.imgur.com/BsGv6Ai.png" target="_blank" class="externalLink" rel="nofollow">Logo</a></b> | <b><a href="https://i.imgur.com/4CD6vvY.jpg" target="_blank" class="externalLink" rel="nofollow">Poster</a></b><br>
<br>
G • 2011 • 73 mins<br>
<br>
<div class="bbCodeBlock bbCodeQuote">
<aside>
<blockquote class="quoteContainer"><div class="quote"><b><span style="font-size: 15px"><span style="font-family: 'Arial'">Program Description</span></span></b><br>
Barbie lets you in on a secret! When Ken is flown away to a fairy land, Barbie and her rival Raquelle must work together and learn that real magic lies in the power of friendship.</div><div class="quoteExpand">Click to expand...</div></blockquote>
</aside>
</div>
<div class="bbCodeBlock bbCodeQuote">
<aside>
<blockquote class="quoteContainer"><div class="quote"><b><span style="font-size: 15px"><span style="font-family: 'Arial'">Program Details</span></span></b><br>
<b>Genres:</b> Family, Animation, Fantasy, Kids<br>
<b>Languages:</b> English</div><div class="quoteExpand">Click to expand...</div></blockquote>
</aside>
</div>
<div class="bbCodeBlock bbCodeQuote">
<aside>
<blockquote class="quoteContainer"><div class="quote"><b><span style="font-size: 15px"><span style="font-family: 'Arial'">Source</span></span></b><br>
<img src="https://i.imgur.com/8RZhFvg.png" class="bbCodeImage LbImage" alt="[​IMG]" data-url="https://i.imgur.com/8RZhFvg.png" style=""></div><div class="quoteExpand">Click to expand...</div></blockquote>
</aside>
</div>
<div class="bbCodeBlock bbCodeQuote">
<aside>
<blockquote class="quoteContainer"><div class="quote"><b><span style="font-size: 15px">Release Name</span></b><br>
Barbie.A.Fairy.Secret.2011.360p.STAN.WEB-DL.AAC2.0.H.264-Samuel</div><div class="quoteExpand">Click to expand...</div></blockquote>
</aside>
</div>
<div class="ToggleTriggerAnchor bbCodeSpoilerContainer">
<button type="button" class="button bbCodeSpoilerButton ToggleTrigger Tooltip JsOnly" data-target="> .SpoilerTarget"><span>Spoiler: <span class="SpoilerTitle">Media Information</span></span></button>
<div class="SpoilerTarget bbCodeSpoilerText">General<br>
Complete name : Barbie.A.Fairy.Secret.2011.360p.STAN.WEB-DL.AAC2.0.H.264-Samuel.mkv<br>
Format : Matroska<br>
Format version : Version 4<br>
File size : 1.28 GiB<br>
Duration : 1 h 12 min<br>
Overall bit rate : 2 529 kb/s<br>
Frame rate : 29.970 FPS<br>
Encoded date : 2023-12-21 19:26:21 UTC<br>
Writing application : mkvmerge v81.0 ('Milliontown') 64-bit<br>
Writing library : libebml v1.4.4 + libmatroska v1.7.1<br>
<br>
Video<br>
ID : 1<br>
Format : AVC<br>
Format/Info : Advanced Video Codec<br>
Format profile : High@L3<br>
Format settings : 1 Ref Frames<br>
Format settings, CABAC : No<br>
Format settings, Reference frames : 1 frame<br>
Codec ID : V_MPEG4/ISO/AVC<br>
Duration : 1 h 12 min<br>
Bit rate : 2 392 kb/s<br>
Width : 640 pixels<br>
Height : 360 pixels<br>
Display aspect ratio : 16:9<br>
Frame rate mode : Constant<br>
Frame rate : 29.970 (30000/1001) FPS<br>
Color space : YUV<br>
Chroma subsampling : 4:2:0<br>
Bit depth : 8 bits<br>
Scan type : Progressive<br>
Bits/(Pixel*Frame) : 0.346<br>
Stream size : 1.21 GiB (95%)<br>
Default : Yes<br>
Forced : No<br>
Color range : Limited<br>
Color primaries : BT.601 NTSC<br>
Transfer characteristics : BT.709<br>
Matrix coefficients : BT.601<br>
<br>
Audio<br>
ID : 2<br>
Format : AAC LC<br>
Format/Info : Advanced Audio Codec Low Complexity<br>
Codec ID : A_AAC-2<br>
Duration : 1 h 12 min<br>
Bit rate : 126 kb/s<br>
Channel(s) : 2 channels<br>
Channel layout : L R<br>
Sampling rate : 44.1 kHz<br>
Frame rate : 43.066 FPS (1024 SPF)<br>
Compression mode : Lossy<br>
Stream size : 64.9 MiB (5%)<br>
Language : English<br>
Default : Yes<br>
Forced : No<br>
<br>
Text<br>
ID : 3<br>
Format : UTF-8<br>
Codec ID : S_TEXT/UTF8<br>
Codec ID/Info : UTF-8 Plain Text<br>
Duration : 1 h 11 min<br>
Bit rate : 73 b/s<br>
Frame rate : 0.365 FPS<br>
Count of elements : 1573<br>
Stream size : 38.4 KiB (0%)<br>
Title : SDH<br>
Language : English<br>
Default : No<br>
Forced : No</div>
</div><br>
<b>Screenshots</b><br>
<img src="https://i.imgur.com/MptogOM.png" class="bbCodeImage LbImage" alt="[​IMG]" data-url="https://i.imgur.com/MptogOM.png" style=""><br>
<br>
<b>Download</b><br>
<div class="bbCodeBlock bbCodeVfcHH HiddenContent">
<div class="attribution type">Hidden Content:</div>
<blockquote>You must reply before you can see the hidden data contained here.</blockquote>
</div></div>
<div class="messageTextEndMarker">&nbsp;</div>
</blockquote>
</article>]]></description>
                <author><![CDATA[Samuel]]></author>
                </item>

                </channel></rss>